<svg xmlns="http://www.w3.org/2000/svg" version="1.1" xmlns:xlink="http://www.w3.org/1999/xlink" xmlns:svgjs="http://svgjs.com/svgjs" width="18" height="27"><svg xmlns="http://www.w3.org/2000/svg" xmlns:xlink="http://www.w3.org/1999/xlink" version="1.1" x="0px" y="0px" viewBox="7 3 18 27" enable-background="new 0 0 32 32" xml:space="preserve"><g><path d="M21.7808,24.375c0.3452,0.4316,0.2754,1.0605-0.1563,1.4063l-5,4C16.4419,29.9268,16.2212,30,16,30   s-0.4419-0.0732-0.6245-0.2188l-5-4C10.1382,25.5908,10,25.3037,10,25s0.1382-0.5908,0.3755-0.7813l2.0809-1.6647   C10.0526,19.6523,7,15.3166,7,12c0-0.3779,0.0186-0.7451,0.0552-1.1021c0.0562-0.5488,0.5425-0.957,1.0967-0.8926   c0.5493,0.0562,0.9492,0.5474,0.8926,1.0967C9.0146,11.3926,9,11.6924,9,12c0,3.3989,4.5425,8.9424,7,11.5605   C18.457,20.9404,23,15.395,23,12c0-4.187-2.813-7-7-7c-2.6772,0-4.9668,1.2524-6.125,3.3501   C9.6079,8.8335,9.0005,9.0088,8.5161,8.7422C8.0327,8.4751,7.8569,7.8667,8.124,7.3833C9.6392,4.6387,12.5835,3,16,3   c5.2988,0,9,3.7012,9,9c0,5.3525-7.9541,13.3682-8.293,13.707C16.5117,25.9023,16.2559,26,16,26s-0.5117-0.0977-0.707-0.293   c-0.0878-0.0878-0.6915-0.6978-1.5306-1.6361L12.6006,25L16,27.7197l4.3755-3.501C20.8062,23.874,21.4355,23.9434,21.7808,24.375z    M11.5527,14.8945C11.2139,14.7251,11,14.3789,11,14v-4c0-0.3789,0.2139-0.7251,0.5527-0.8945l4-2   c0.2813-0.1406,0.6133-0.1406,0.8945,0l4,2C20.7861,9.2749,21,9.6211,21,10v4c0,0.3789-0.2139,0.7251-0.5527,0.8945l-4,2   C16.3066,16.9648,16.1533,17,16,17s-0.3066-0.0352-0.4473-0.1055L11.5527,14.8945z M13,13.3818l3,1.5l3-1.5v-2.7637l-3-1.5l-3,1.5   V13.3818z"></path></g></svg><style>@media (prefers-color-scheme: light) { :root { filter: none; } }
</style></svg>