<?xml version="1.0" standalone="no"?>
<!DOCTYPE svg PUBLIC "-//W3C//DTD SVG 20010904//EN"
 "http://www.w3.org/TR/2001/REC-SVG-20010904/DTD/svg10.dtd">
<svg version="1.0" xmlns="http://www.w3.org/2000/svg"
 width="1024.000000pt" height="1024.000000pt" viewBox="0 0 1024.000000 1024.000000"
 preserveAspectRatio="xMidYMid meet">
<metadata>
Created by potrace 1.14, written by Peter Selinger 2001-2017
</metadata>
<g transform="translate(0.000000,1024.000000) scale(0.100000,-0.100000)"
fill="#000000" stroke="none">
<path d="M0 5120 l0 -5120 5120 0 5120 0 0 5120 0 5120 -5120 0 -5120 0 0
-5120z m4260 4079 c455 -42 864 -186 1235 -435 618 -414 1017 -1098 1130
-1934 18 -134 42 -578 32 -603 -6 -16 -55 -17 -714 -15 l-708 3 -6 215 c-8
244 -29 381 -84 547 -62 187 -151 338 -270 458 -220 224 -508 337 -895 352
-325 13 -583 -54 -819 -211 -395 -263 -577 -670 -621 -1391 -13 -221 -13
-1970 0 -2180 55 -856 361 -1351 942 -1519 136 -39 276 -56 469 -56 422 0 714
104 935 332 211 217 325 498 341 836 l6 132 -902 0 -901 0 0 710 0 710 1615 0
1615 0 0 -1995 0 -1995 -650 0 -650 0 0 440 0 440 -93 0 -93 0 -23 -72 c-94
-290 -342 -602 -606 -760 -139 -84 -350 -150 -582 -185 -168 -24 -564 -24
-723 0 -788 123 -1377 566 -1745 1312 -203 412 -300 771 -366 1360 -16 143
-24 2378 -9 2625 34 568 140 996 355 1435 265 539 644 927 1150 1176 471 232
1032 324 1635 268z"/>
</g>
</svg>
